<svg aria-hidden="true" style="position: absolute; width: 0; height: 0; overflow: hidden;" version="1.1" xmlns="http://www.w3.org/2000/svg" xmlns:xlink="http://www.w3.org/1999/xlink">
<defs>
<symbol id="icon-Vector-4-2" viewBox="0 0 29 32">
<path d="M27.75 13.653c-0.314-0.423-0.784-0.715-1.324-0.79l-0.011-0.001c-0.086-0.013-0.184-0.020-0.285-0.020-0.461 0-0.886 0.157-1.224 0.42l0.004-0.003-1.406 1.077-2.131 1.592-1.524-0.607c2.718-1.219 4.619-3.939 4.619-7.096 0-4.293-3.506-7.784-7.816-7.784s-7.816 3.492-7.816 7.784c0 1.556 0.465 3.002 1.258 4.22l-3.109-0.027c-0.010 0-0.017 0.005-0.026 0.006-0.059 0.002-0.117 0.014-0.174 0.034-0.015 0.006-0.029 0.008-0.043 0.015-0.007 0.003-0.014 0.003-0.021 0.007l-3.631 1.793-2.126 1.023c-0.027 0.012-0.050 0.025-0.072 0.040l0.002-0.001c-0.541 0.363-0.892 0.973-0.892 1.664 0 0.333 0.081 0.647 0.226 0.923l-0.005-0.011c0.247 0.482 0.668 0.837 1.186 0.999 0.18 0.059 0.388 0.093 0.603 0.093 0.346 0 0.671-0.088 0.955-0.243l-0.010 0.005 1.558-0.829 2.542-1.313 1.524-0.010-6.11 6.082s-0.001 0-0.002 0.001l-1.503 1.497c-0.34 0.336-0.55 0.802-0.55 1.317 0 0.002 0 0.004 0 0.006v-0c0 0.5 0.195 0.97 0.55 1.323 0.365 0.363 0.844 0.545 1.324 0.545 0.481 0 0.959-0.181 1.325-0.545l1.476-1.469 1.954-1.46 1.012 1.007-3.483 3.468c-0.34 0.336-0.55 0.802-0.55 1.317 0 0.002 0 0.004 0 0.005v-0c0 0.5 0.195 0.97 0.55 1.324 0.365 0.363 0.845 0.545 1.325 0.545s0.96-0.182 1.325-0.545l3.91-3.892c0-0.001 0-0.002 0.001-0.002l1.133-1.123-0.005-0.004c0.007-0.007 0.017-0.010 0.025-0.017l5.8-6.354 3.897 0.554c0.023 0.003 0.049 0.005 0.076 0.005 0.079 0 0.154-0.015 0.223-0.043l-0.004 0.001c0.020-0.007 0.037-0.017 0.056-0.026 0.021-0.011 0.044-0.017 0.064-0.030l3.608-2.396c0.013-0.009 0.020-0.023 0.033-0.033 0.014-0.011 0.032-0.017 0.045-0.029l1.428-1.337c0.39-0.365 0.633-0.884 0.633-1.459 0-0.449-0.148-0.864-0.399-1.198l0.004 0.005zM2.392 17.707c-0.194 0.104-0.415 0.125-0.627 0.058-0.331-0.104-0.567-0.408-0.567-0.767 0-0.265 0.128-0.5 0.326-0.646l0.002-0.002 1.475-0.71 0.355 1.038 0.149 0.436-1.114 0.592zM6.319 15.655l-1.739 0.898-0.286-0.839-0.206-0.602 2.275-1.123-0.044 1.666zM23.272 8.221c0 1.031-0.246 2.004-0.673 2.874l-4.695-2.132c-0.049-0.646-0.384-1.204-0.878-1.554l-0.007-0.004 1.644-5.457c2.669 0.848 4.609 3.339 4.609 6.273zM10.036 8.221c0-3.632 2.969-6.588 6.618-6.588 0.284 0 0.561 0.024 0.837 0.059l-1.608 5.337c-0.021 0-0.042-0.006-0.064-0.006-0 0-0 0-0.001 0-1.159 0-2.098 0.938-2.102 2.095v0c0.004 1.158 0.943 2.096 2.102 2.096 0 0 0 0 0.001 0h-0c0.78 0 1.453-0.43 1.817-1.060l4.337 1.971c-1.207 1.624-3.138 2.684-5.318 2.684-3.649 0-6.618-2.956-6.618-6.588zM16.724 9.119c0 0.495-0.406 0.898-0.905 0.898-0.001 0-0.001 0-0.002 0-0.497 0-0.9-0.402-0.903-0.898v-0c0-0.495 0.406-0.898 0.905-0.898s0.905 0.403 0.905 0.898zM2.767 25.988c-0.123 0.122-0.293 0.197-0.48 0.197s-0.356-0.075-0.479-0.196l0 0c-0.122-0.121-0.198-0.289-0.198-0.474s0.076-0.353 0.198-0.474l0-0 1.080-1.076 0.956 0.952-1.076 1.072zM6.376 30.18c-0.123 0.122-0.293 0.198-0.481 0.198s-0.356-0.075-0.479-0.197l0 0c-0.122-0.121-0.198-0.289-0.198-0.474s0.076-0.353 0.198-0.474l0-0 1.081-1.077 0.956 0.952-1.077 1.072zM10.285 26.286l-0.002 0.001-1.982 1.976-0.956-0.952 1.98-1.972s0.001 0 0.002-0.001c0.045-0.045 0.073-0.099 0.101-0.152 0.007-0.016 0.022-0.029 0.029-0.045 0.019-0.047 0.021-0.096 0.028-0.145 0.004-0.027 0.016-0.053 0.016-0.081 0-0.040-0.014-0.079-0.022-0.118-0.007-0.036-0.007-0.073-0.021-0.107-0.022-0.056-0.062-0.106-0.103-0.154-0.011-0.013-0.015-0.030-0.028-0.043h-0.001l-0.001-0.002-1.804-1.797c-0.019-0.019-0.044-0.027-0.065-0.043-0.029-0.023-0.061-0.045-0.095-0.063l-0.003-0.002c-0.030-0.014-0.065-0.027-0.101-0.036l-0.004-0.001c-0.034-0.011-0.073-0.019-0.113-0.022l-0.002-0c-0.007-0-0.015-0-0.023-0-0.030 0-0.059 0.002-0.087 0.006l0.003-0c-0.043 0.004-0.083 0.012-0.122 0.024l0.004-0.001c-0.040 0.015-0.075 0.032-0.108 0.052l0.002-0.001c-0.022 0.012-0.048 0.017-0.069 0.032l-1.991 1.487-1.011-1.007 2.694-2.68 4.895 4.816-1.041 1.032zM17.941 18.407c-0.017-0.002-0.034 0.005-0.051 0.003-0.009-0-0.019-0.001-0.029-0.001-0.035 0-0.070 0.003-0.104 0.009l0.004-0.001c-0.078 0.012-0.148 0.039-0.21 0.078l0.002-0.001c-0.034 0.020-0.064 0.042-0.093 0.069-0.015 0.012-0.032 0.019-0.045 0.033l-5.276 5.778-4.859-4.78 3.181-3.164c0.108-0.108 0.175-0.258 0.175-0.423 0-0.331-0.268-0.6-0.6-0.6-0.001 0-0.001 0-0.002 0h0l-2.491 0.015 0.031-1.805 3.485 0.030c1.419 1.456 3.399 2.359 5.59 2.359 0.001 0 0.003 0 0.004 0h-0c0.491 0 0.97-0.051 1.437-0.138 0.045 0.036 0.089 0.072 0.146 0.095l2.705 1.078 0.171 0.851 0.2 0.994-3.372-0.479zM22.479 18.608l-0.352-1.749 1.624-1.213 1.063 1.411-2.335 1.551zM26.694 15.429l-0.941 0.881-1.045-1.388 0.934-0.715c0.174-0.135 0.394-0.189 0.609-0.161 0.217 0.030 0.409 0.144 0.539 0.319 0.244 0.328 0.202 0.785-0.095 1.064z"></path>
</symbol>
<symbol id="icon-Vector-3-2" viewBox="0 0 41 32">
<path d="M2.047 31.732h32.751c0 0 0 0 0.001 0 1.13 0 2.047-0.916 2.047-2.047v0-2.73c0-1.13-0.916-2.047-2.047-2.047-0 0-0 0-0.001 0h-0.682v-17.016l3.876-3.671c0.265 0.134 0.579 0.212 0.91 0.212 1.137 0 2.058-0.921 2.058-2.058s-0.922-2.058-2.058-2.058c-1.137 0-2.058 0.921-2.058 2.058 0 0.316 0.071 0.615 0.198 0.882l-0.005-0.012-2.92 2.768v-1.574c0-1.13-0.916-2.047-2.047-2.047v0h-27.292c-0 0-0 0-0.001 0-1.13 0-2.047 0.916-2.047 2.047 0 0 0 0 0 0.001v-0 20.468h-0.682c-1.13 0-2.047 0.916-2.047 2.047 0 0 0 0 0 0.001v-0 2.73c0 1.13 0.916 2.047 2.047 2.047v0zM38.892 1.711c0.377 0 0.683 0.306 0.683 0.683s-0.306 0.683-0.683 0.683v0c-0.377 0-0.683-0.306-0.683-0.683s0.306-0.683 0.683-0.683v0zM4.094 4.44c0-0.378 0.305-0.682 0.682-0.682h27.292c0.377 0 0.682 0.305 0.682 0.682v2.865l-1.364 1.297v-2.797c0-0.377-0.305-0.682-0.682-0.682h-24.563c-0.377 0-0.682 0.305-0.682 0.682v17.057c0 0.378 0.305 0.683 0.682 0.683h24.563c0.377 0 0.682-0.306 0.682-0.683v-12.383l1.364-1.293v15.722h-28.657v-20.468zM10.235 13.31c-0.002 0-0.004 0-0.006 0-1.13 0-2.047 0.916-2.047 2.047s0.916 2.047 2.047 2.047c0.553 0 1.055-0.219 1.423-0.576l-0.001 0.001 2.372 1.19c0.275 0.138 0.61 0.073 0.815-0.157l5.041-5.672 4.956 3.714c0.266 0.199 0.637 0.178 0.878-0.051l4.307-4.080v10.408h-23.197v-15.693h23.199v3.405l-4.828 4.572-4.998-3.747c-0.113-0.085-0.255-0.136-0.409-0.136-0.202 0-0.384 0.088-0.509 0.228l-0.001 0.001-5.111 5.75-1.911-0.956c0.014-0.082 0.023-0.164 0.026-0.248-0-1.13-0.916-2.046-2.047-2.047h-0zM10.917 15.357c0 0.377-0.306 0.683-0.683 0.683s-0.683-0.306-0.683-0.683v0c0-0.377 0.306-0.683 0.683-0.683s0.683 0.306 0.683 0.683v0zM15.011 26.274h6.823v0.682c0 0.377-0.305 0.682-0.682 0.682h-5.459c-0.377 0-0.682-0.305-0.682-0.682v0-0.682zM1.364 26.957c0-0.377 0.306-0.682 0.682-0.682h11.599v0.682c0 0 0 0 0 0.001 0 1.13 0.916 2.047 2.047 2.047h5.459c1.13 0 2.047-0.916 2.047-2.047 0-0 0-0 0-0.001v0-0.682h11.598c0.378 0 0.683 0.305 0.683 0.682v2.73c0 0.376-0.306 0.682-0.683 0.682h-32.75c-0.377 0-0.682-0.305-0.682-0.682v0-2.73z"></path>
</symbol>
<symbol id="icon-Vector-5" viewBox="0 0 30 32">
<path d="M29.773 22.098l-8.443-8.505 0.937-4.615c0.242 0.094 0.499 0.143 0.759 0.145h0.006c0.008 0 0.017 0 0.026 0 1.192 0 2.159-0.967 2.159-2.159s-0.967-2.159-2.159-2.159c-1.192 0-2.159 0.967-2.159 2.159 0 0.26 0.046 0.508 0.13 0.739l-0.005-0.015-4.96 0.605-8.091-8.133c-0.096-0.098-0.229-0.159-0.376-0.16h-0c-0.14 0.001-0.274 0.057-0.373 0.155l-1.513 1.504c-0.097 0.097-0.156 0.23-0.156 0.377s0.060 0.281 0.156 0.377v0l0.814 0.825c-1.143 2.062-1.816 4.522-1.816 7.139 0 4.106 1.656 7.825 4.336 10.526l-0.001-0.001c0.042 0.041 0.091 0.073 0.146 0.098-0.032 0.164-0.051 0.353-0.052 0.546v6.188h-6.4c-1.472 0.001-2.666 1.194-2.667 2.666v1.067c0.001 0.295 0.24 0.533 0.534 0.533h24.534c0.294 0 0.534-0.239 0.534-0.534v-1.067c-0.002-1.472-1.195-2.665-2.667-2.666h-6.4v-2.742c1.003 0.21 2.024 0.317 3.049 0.32 2.58-0.003 5.005-0.663 7.117-1.822l-0.077 0.039 0.819 0.823c0.099 0.101 0.235 0.159 0.377 0.16 0.14-0.001 0.274-0.056 0.373-0.155l1.512-1.505c0.096-0.097 0.156-0.23 0.156-0.377s-0.060-0.28-0.156-0.377v0zM22.28 6.233c0.193-0.192 0.458-0.31 0.752-0.31 0.589 0 1.067 0.478 1.067 1.066s-0.477 1.066-1.067 1.066c-0 0-0 0-0 0h-0.003c-0.587-0.003-1.061-0.479-1.061-1.066 0-0.296 0.12-0.563 0.315-0.756l0-0h-0.002zM21.024 9.738l-0.599 2.945-1.175-1.182 1.774-1.764zM20.419 8.836l-1.92 1.909-1.485-1.493 3.405-0.415zM23.004 28.8c0.884 0 1.6 0.716 1.6 1.6v0 0.534h-23.466v-0.534c0-0.884 0.716-1.6 1.6-1.6h20.267zM15.537 26.666v1.067h-5.333v-1.067h5.334zM10.204 25.6v-4.053c0-1.294 1.197-2.346 2.666-2.346s2.667 1.053 2.667 2.346v4.053h-5.333zM16.604 23.904v-2.357c0-1.882-1.675-3.413-3.733-3.413-0.018-0-0.038-0-0.059-0-1.353 0-2.54 0.707-3.213 1.771l-0.009 0.016c-2.36-2.482-3.811-5.846-3.811-9.549 0-2.314 0.567-4.496 1.569-6.414l-0.036 0.077 18.602 18.709c-1.823 0.947-3.98 1.502-6.266 1.502-1.079 0-2.128-0.124-3.136-0.357l0.093 0.018zM27.893 23.221l-21.057-21.18 0.755-0.752 7.935 7.98c0.004 0 0.005 0.007 0.009 0.009l13.114 13.191-0.757 0.752z"></path>
</symbol>
<symbol id="icon-Vector-2-2" viewBox="0 0 31 32">
<path d="M30.797 15.301c-0.002-8.452-6.855-15.303-15.308-15.301s-15.303 6.855-15.301 15.308c0.002 6.788 4.422 12.543 10.541 14.545l0.108 0.031c0.060 0.019 0.123 0.029 0.187 0.029 0.121 0 0.239-0.032 0.342-0.093 0.135-0.080 0.236-0.207 0.284-0.357l3.865-12.25c1.054-0.004 1.906-0.859 1.906-1.913 0-1.057-0.856-1.913-1.913-1.913-0.303 0-0.59 0.070-0.844 0.196l0.011-0.005-5.106-5.107c-0.115-0.115-0.275-0.187-0.451-0.187-0.352 0-0.638 0.285-0.638 0.638 0 0.176 0.071 0.336 0.187 0.451v0l5.104 5.109c-0.121 0.241-0.191 0.525-0.191 0.826 0 0.601 0.283 1.137 0.723 1.48l0.004 0.003-3.683 11.673c-7.278-2.681-11.005-10.754-8.323-18.032 2.681-7.277 10.755-11.005 18.032-8.323s11.004 10.755 8.323 18.032c-1.345 3.581-4.004 6.406-7.374 7.938l-0.088 0.036-0.398-1.875c-0.063-0.291-0.318-0.505-0.624-0.505-0.163 0-0.312 0.061-0.425 0.162l0.001-0.001-3.837 3.425c-0.132 0.117-0.214 0.287-0.214 0.477 0 0.283 0.185 0.524 0.441 0.607l0.005 0.001 4.898 1.564c0.058 0.020 0.126 0.031 0.196 0.031 0.352 0 0.637-0.285 0.637-0.637 0-0.047-0.005-0.093-0.015-0.137l0.001 0.004-0.391-1.839c5.528-2.374 9.329-7.772 9.329-14.057 0-0.011 0-0.023-0-0.034v0.002zM15.492 14.664c0.352 0 0.638 0.286 0.638 0.638s-0.286 0.638-0.638 0.638v0c-0.352 0-0.638-0.286-0.638-0.638s0.286-0.638 0.638-0.638v0zM17.593 29.527l2.184-1.948 0.603 2.84-2.787-0.892z"></path>
</symbol>
<symbol id="icon-Traling-Icons-2" viewBox="0 0 186 32">
<path fill="#4d5ae5" style="fill: var(--color1, #4d5ae5)" d="M32 16c0 0.006 0 0.013 0 0.021 0 4.412-1.791 8.405-4.686 11.293l-0 0c-2.888 2.895-6.881 4.686-11.293 4.686-0.007 0-0.015 0-0.022 0h0.001c-0.006 0-0.013 0-0.021 0-4.412 0-8.405-1.791-11.293-4.686l-0-0c-2.895-2.888-4.686-6.881-4.686-11.293 0-0.007 0-0.015 0-0.022v0.001c0-0.006 0-0.013 0-0.020 0-4.412 1.791-8.405 4.686-11.293l0-0c2.888-2.895 6.881-4.686 11.293-4.686 0.007 0 0.014 0 0.021 0h-0.001c0.006 0 0.013 0 0.021 0 4.412 0 8.405 1.791 11.293 4.686l0 0c2.895 2.888 4.686 6.881 4.686 11.293 0 0.007 0 0.015 0 0.022v-0.001z"></path>
<path fill="#f4f4fd" style="fill: var(--color2, #f4f4fd)" d="M22.387 13.363c-0.030-0.68-0.14-1.148-0.298-1.553-0.169-0.445-0.421-0.824-0.739-1.135l-0.001-0.001c-0.312-0.316-0.69-0.567-1.111-0.729l-0.022-0.007c-0.408-0.158-0.872-0.268-1.552-0.298-0.686-0.032-0.904-0.040-2.641-0.040-1.738 0-1.956 0.008-2.638 0.038-0.68 0.030-1.147 0.14-1.552 0.298-0.445 0.169-0.824 0.421-1.135 0.739l-0.001 0.001c-0.317 0.312-0.568 0.69-0.73 1.111l-0.007 0.022c-0.158 0.408-0.267 0.872-0.298 1.552-0.032 0.686-0.040 0.904-0.040 2.641 0 1.738 0.008 1.956 0.038 2.638 0.030 0.68 0.14 1.148 0.298 1.553 0.162 0.43 0.415 0.815 0.74 1.135 0.32 0.325 0.708 0.578 1.133 0.738 0.408 0.158 0.872 0.268 1.553 0.298 0.682 0.030 0.9 0.038 2.638 0.038s1.955-0.008 2.638-0.038c0.68-0.030 1.148-0.14 1.553-0.298 0.863-0.34 1.533-1.010 1.865-1.851l0.008-0.022c0.158-0.408 0.268-0.872 0.298-1.553 0.030-0.682 0.038-0.9 0.038-2.638s-0.002-1.955-0.032-2.638zM21.235 18.589c-0.028 0.626-0.133 0.963-0.221 1.188-0.22 0.56-0.655 0.995-1.201 1.211l-0.014 0.005c-0.225 0.087-0.565 0.192-1.187 0.219-0.675 0.030-0.878 0.038-2.586 0.038s-1.913-0.008-2.586-0.038c-0.625-0.027-0.962-0.132-1.188-0.22-0.288-0.108-0.534-0.27-0.735-0.477l-0-0c-0.207-0.202-0.369-0.447-0.473-0.721l-0.005-0.014c-0.088-0.225-0.192-0.565-0.22-1.187-0.030-0.675-0.038-0.878-0.038-2.586s0.008-1.913 0.038-2.586c0.028-0.626 0.133-0.963 0.22-1.188 0.102-0.278 0.266-0.53 0.48-0.735 0.208-0.212 0.458-0.375 0.736-0.478 0.224-0.088 0.565-0.192 1.187-0.22 0.675-0.030 0.878-0.038 2.586-0.038 1.71 0 1.912 0.008 2.586 0.038 0.625 0.028 0.962 0.133 1.188 0.22 0.277 0.102 0.53 0.266 0.734 0.478 0.213 0.208 0.376 0.458 0.478 0.736 0.088 0.224 0.193 0.565 0.221 1.187 0.030 0.675 0.037 0.878 0.037 2.586s-0.007 1.907-0.037 2.582z"></path>
<path fill="#f4f4fd" style="fill: var(--color2, #f4f4fd)" d="M16.024 12.713c-1.785 0.041-3.216 1.497-3.216 3.288s1.431 3.247 3.213 3.288l0.004 0c1.785-0.041 3.216-1.497 3.216-3.288s-1.431-3.247-3.212-3.288l-0.004-0zM16.024 18.134c-1.178 0-2.134-0.955-2.134-2.134s0.955-2.134 2.134-2.134v0c1.178 0 2.134 0.955 2.134 2.134s-0.955 2.134-2.134 2.134v0zM20.21 12.583c0 0.424-0.344 0.768-0.768 0.768s-0.768-0.344-0.768-0.768v0c0-0.424 0.344-0.768 0.768-0.768s0.768 0.344 0.768 0.768v0z"></path>
<path fill="#4d5ae5" style="fill: var(--color1, #4d5ae5)" d="M83.2 16c0 0.006 0 0.013 0 0.020 0 4.412-1.791 8.406-4.686 11.294l-0 0c-2.888 2.895-6.881 4.686-11.293 4.686-0.007 0-0.015 0-0.022 0h0.001c-0.006 0-0.013 0-0.021 0-4.412 0-8.405-1.791-11.293-4.686l-0-0c-2.895-2.888-4.686-6.881-4.686-11.293 0-0.007 0-0.015 0-0.022v0.001c0-0.006 0-0.013 0-0.021 0-4.412 1.791-8.405 4.686-11.293l0-0c2.888-2.895 6.881-4.686 11.293-4.686 0.007 0 0.015 0 0.022 0h-0.001c0.006 0 0.013 0 0.021 0 4.412 0 8.405 1.791 11.293 4.686l0 0c2.895 2.888 4.686 6.882 4.686 11.294 0 0.007 0 0.014 0 0.021v-0.001z"></path>
<path fill="#f4f4fd" style="fill: var(--color2, #f4f4fd)" d="M73.6 12.031c-0.44 0.197-0.95 0.343-1.485 0.412l-0.027 0.003c0.544-0.327 0.953-0.831 1.149-1.432l0.005-0.018c-0.479 0.289-1.037 0.509-1.63 0.63l-0.034 0.006c-0.48-0.512-1.16-0.83-1.915-0.83-1.449 0-2.624 1.175-2.624 2.624 0 0 0 0.001 0 0.001v-0c0 0.208 0.018 0.408 0.061 0.598-2.187-0.11-4.111-1.151-5.398-2.731l-0.011-0.014c-0.225 0.379-0.358 0.836-0.358 1.324 0 0.906 0.458 1.704 1.155 2.177l0.009 0.006c-0.437-0.012-0.844-0.13-1.199-0.33l0.013 0.007v0.029c0.002 1.266 0.895 2.322 2.085 2.575l0.017 0.003c-0.2 0.055-0.43 0.086-0.667 0.086-0.007 0-0.014-0-0.022-0h0.001c-0.012 0-0.027 0-0.041 0-0.161 0-0.319-0.016-0.471-0.048l0.015 0.003c0.349 1.049 1.309 1.798 2.449 1.828l0.003 0c-0.886 0.698-2.018 1.119-3.248 1.119-0.002 0-0.004 0-0.006 0h0c-0.215 0-0.422-0.010-0.628-0.036 1.13 0.738 2.515 1.178 4.002 1.178 0.008 0 0.017 0 0.025-0h-0.001c4.829 0 7.469-4 7.469-7.467 0-0.116-0.004-0.228-0.010-0.339 0.52-0.375 0.956-0.827 1.303-1.344l0.012-0.019z"></path>
<path fill="#4d5ae5" style="fill: var(--color1, #4d5ae5)" d="M134.4 16c0 0.006 0 0.013 0 0.020 0 4.412-1.791 8.406-4.686 11.293l-0 0c-2.888 2.895-6.881 4.686-11.293 4.686-0.007 0-0.015 0-0.022 0h0.001c-0.006 0-0.014 0-0.021 0-4.412 0-8.405-1.791-11.292-4.686l-0-0c-2.895-2.888-4.686-6.882-4.686-11.294 0-0.007 0-0.014 0-0.021v0.001c0-0.006 0-0.013 0-0.020 0-4.412 1.791-8.406 4.686-11.293l0-0c2.888-2.895 6.881-4.686 11.293-4.686 0.007 0 0.015 0 0.022 0h-0.001c0.006 0 0.014 0 0.021 0 4.412 0 8.405 1.791 11.292 4.686l0 0c2.895 2.888 4.686 6.882 4.686 11.294 0 0.007 0 0.014 0 0.021v-0.001z"></path>
<path fill="#f4f4fd" style="fill: var(--color2, #f4f4fd)" d="M120.532 11.725h1.168v-2.034c-0.495-0.058-1.069-0.091-1.651-0.091-0.018 0-0.036 0-0.055 0h0.003c-1.685 0-2.838 1.060-2.838 3.008v1.792h-1.859v2.275h1.859v5.725h2.279v-5.724h1.784l0.283-2.276h-2.068v-1.567c0.001-0.658 0.178-1.108 1.094-1.108z"></path>
<path fill="#4d5ae5" style="fill: var(--color1, #4d5ae5)" d="M185.6 16c0 0.006 0 0.013 0 0.020 0 4.412-1.791 8.406-4.686 11.293l-0 0c-2.888 2.895-6.881 4.686-11.293 4.686-0.007 0-0.015 0-0.022 0h0.001c-0.006 0-0.014 0-0.021 0-4.412 0-8.405-1.791-11.292-4.686l-0-0c-2.895-2.888-4.686-6.882-4.686-11.294 0-0.007 0-0.014 0-0.021v0.001c0-0.006 0-0.013 0-0.020 0-4.412 1.791-8.406 4.686-11.293l0-0c2.888-2.895 6.881-4.686 11.293-4.686 0.007 0 0.015 0 0.022 0h-0.001c0.006 0 0.014 0 0.021 0 4.412 0 8.405 1.791 11.292 4.686l0 0c2.895 2.888 4.686 6.882 4.686 11.294 0 0.007 0 0.014 0 0.021v-0.001z"></path>
<path fill="#f4f4fd" style="fill: var(--color2, #f4f4fd)" d="M175.997 22.4h0.003v-4.696c0-2.296-0.494-4.066-3.179-4.066-1.29 0-2.157 0.709-2.51 1.38h-0.038v-1.166h-2.546v8.547h2.651v-4.232c0-1.114 0.211-2.19 1.59-2.19 1.36 0 1.38 1.271 1.38 2.262v4.16h2.648zM163.411 13.854h2.654v8.546h-2.654v-8.546zM164.737 9.6c-0.848 0-1.537 0.688-1.537 1.537s0.689 1.552 1.537 1.552c0.849 0 1.538-0.704 1.538-1.552-0.001-0.848-0.689-1.536-1.537-1.537h-0z"></path>
</symbol>
</defs>
</svg>
